<svg xmlns="http://www.w3.org/2000/svg" viewBox="0 0 575 577" width="575" height="577">
<line x1="250.9" y1="95.4" x2="250.9" y2="169.3" stroke="#c8310a" stroke-width="2.3" stroke-linecap="round"/>
<line x1="260.4" y1="78.8" x2="289.6" y2="62.0" stroke="#c8310a" stroke-width="2.3" stroke-linecap="round"/>
<line x1="113.2" y1="174.8" x2="177.3" y2="211.8" stroke="#c8310a" stroke-width="2.3" stroke-linecap="round"/>
<line x1="94.1" y1="174.9" x2="64.9" y2="191.7" stroke="#c8310a" stroke-width="2.3" stroke-linecap="round"/>
<line x1="461.3" y1="460.9" x2="398.1" y2="424.3" stroke="#2b55c4" stroke-width="2.3" stroke-linecap="round"/>
<line x1="471.7" y1="478.9" x2="471.7" y2="511.5" stroke="#2b55c4" stroke-width="2.3" stroke-linecap="round"/>
<line x1="482.1" y1="460.8" x2="510.4" y2="444.5" stroke="#2b55c4" stroke-width="2.3" stroke-linecap="round"/>
<line x1="398.1" y1="339.3" x2="324.5" y2="296.9" stroke="#141414" stroke-width="2.3" stroke-linecap="round"/>
<line x1="398.1" y1="339.3" x2="398.1" y2="424.3" stroke="#141414" stroke-width="2.3" stroke-linecap="round"/>
<line x1="324.5" y1="296.9" x2="324.5" y2="211.8" stroke="#141414" stroke-width="2.3" stroke-linecap="round"/>
<line x1="317.5" y1="286.9" x2="317.5" y2="221.8" stroke="#141414" stroke-width="2.3" stroke-linecap="round"/>
<line x1="324.5" y1="296.9" x2="250.9" y2="339.3" stroke="#141414" stroke-width="2.3" stroke-linecap="round"/>
<line x1="324.5" y1="211.8" x2="250.9" y2="169.3" stroke="#141414" stroke-width="2.3" stroke-linecap="round"/>
<line x1="250.9" y1="339.3" x2="177.3" y2="296.9" stroke="#141414" stroke-width="2.3" stroke-linecap="round"/>
<line x1="245.7" y1="328.3" x2="189.4" y2="295.8" stroke="#141414" stroke-width="2.3" stroke-linecap="round"/>
<line x1="250.9" y1="169.3" x2="177.3" y2="211.8" stroke="#141414" stroke-width="2.3" stroke-linecap="round"/>
<line x1="245.7" y1="180.4" x2="189.4" y2="212.9" stroke="#141414" stroke-width="2.3" stroke-linecap="round"/>
<line x1="177.3" y1="296.9" x2="177.3" y2="211.8" stroke="#141414" stroke-width="2.3" stroke-linecap="round"/>
<circle cx="250.9" cy="84.4" r="13" fill="white" stroke="none"/>
<text x="250.9" y="84.4" font-size="19" font-family="Arial,Helvetica,sans-serif" fill="#c8310a" text-anchor="middle" dominant-baseline="central">O</text>
<circle cx="103.6" cy="169.3" r="13" fill="white" stroke="none"/>
<text x="103.6" y="169.3" font-size="19" font-family="Arial,Helvetica,sans-serif" fill="#c8310a" text-anchor="middle" dominant-baseline="central">O</text>
<circle cx="471.7" cy="466.9" r="14" fill="white" stroke="none"/>
<text x="471.7" y="466.9" font-size="20" font-family="Arial,Helvetica,sans-serif" fill="#2b55c4" text-anchor="middle" dominant-baseline="central">N</text>
<circle cx="471.7" cy="519.5" r="10" fill="white" stroke="none"/>
<text x="471.7" y="519.5" font-size="17" font-family="Arial,Helvetica,sans-serif" fill="#808080" text-anchor="middle" dominant-baseline="central">H</text>
<circle cx="517.3" cy="440.5" r="10" fill="white" stroke="none"/>
<text x="517.3" y="440.5" font-size="17" font-family="Arial,Helvetica,sans-serif" fill="#808080" text-anchor="middle" dominant-baseline="central">H</text>
<circle cx="296.5" cy="58.0" r="10" fill="white" stroke="none"/>
<text x="296.5" y="58.0" font-size="17" font-family="Arial,Helvetica,sans-serif" fill="#808080" text-anchor="middle" dominant-baseline="central">H</text>
<circle cx="58.0" cy="195.7" r="10" fill="white" stroke="none"/>
<text x="58.0" y="195.7" font-size="17" font-family="Arial,Helvetica,sans-serif" fill="#808080" text-anchor="middle" dominant-baseline="central">H</text>
</svg>